<svg xmlns="http://www.w3.org/2000/svg" version="1.1" xmlns:xlink="http://www.w3.org/1999/xlink" xmlns:svgjs="http://svgjs.dev/svgjs" width="2000" height="1247" viewBox="0 0 2000 1247">
  <g transform="matrix(1,0,0,1,-1.2121212121212466,0.504858299595071)">
    <svg viewBox="0 0 396 247" data-background-color="#0a1627" preserveAspectRatio="xMidYMid meet" height="1247" width="2000" xmlns="http://www.w3.org/2000/svg" xmlns:xlink="http://www.w3.org/1999/xlink">
      <g id="tight-bounds" transform="matrix(1,0,0,1,0.2400000000000091,-0.09999999999999432)">
        <svg viewBox="0 0 395.52 247.2" height="247.2" width="395.52">
          <g>
            <svg></svg>
          </g>
          <g>
            <svg viewBox="0 0 395.52 247.2" height="247.2" width="395.52">
              <mask id="bc127c03-6c58-443d-b729-41ff911d1c9b">
                <rect width="640" height="400" fill="white"></rect>
                <g transform="matrix(1,0,0,1,113.47591011235954,37.08)">
                  <svg viewBox="0 0 168.5681797752809 173.04" height="173.04" width="168.5681797752809">
                    <g>
                      <svg viewBox="0 0 168.5681797752809 173.04" height="173.04" width="168.5681797752809">
                        <g>
                          <svg viewBox="0 0 168.5681797752809 173.04" height="173.04" width="168.5681797752809">
                            <g>
                              <svg viewBox="0 0 168.5681797752809 173.04" height="173.04" width="168.5681797752809">
                                <g id="SvgjsG1233">
                                  <svg viewBox="0 0 168.5681797752809 173.04" height="173.04" width="168.5681797752809" id="SvgjsSvg1232">
                                    <g>
                                      <svg viewBox="0 0 168.5681797752809 173.04" height="173.04" width="168.5681797752809">
                                        <g transform="matrix(1,0,0,1,0,0)">
                                          <svg width="168.5681797752809" viewBox="1.0999999999999996 -41.5 44.35 45.5" height="173.04" data-palette-color="#fe0039">
                                            <path d="M10.25 0L5.1 0 5.1-37.5 5.15-37.5 24.45-10.15 22.15-10.65 41.35-37.5 41.45-37.5 41.45 0 36.15 0 36.15-25.45 36.5-22.7 23.1-3.75 23-3.75 9.35-22.7 10.25-25.2 10.25 0Z" opacity="1" transform="matrix(1,0,0,1,0,0)" fill="black" class="wordmark-text-0" id="SvgjsPath1231" stroke-width="7" stroke="black" stroke-linejoin="round"></path>
                                          </svg>
                                        </g>
                                      </svg>
                                    </g>
                                  </svg>
                                </g>
                              </svg>
                            </g>
                          </svg>
                        </g>
                      </svg>
                    </g>
                  </svg>
                </g>
              </mask>
              <g transform="matrix(1,0,0,1,113.47591011235954,37.08)">
                <svg viewBox="0 0 168.5681797752809 173.04" height="173.04" width="168.5681797752809">
                  <g>
                    <svg viewBox="0 0 168.5681797752809 173.04" height="173.04" width="168.5681797752809">
                      <g>
                        <svg viewBox="0 0 168.5681797752809 173.04" height="173.04" width="168.5681797752809">
                          <g>
                            <svg viewBox="0 0 168.5681797752809 173.04" height="173.04" width="168.5681797752809">
                              <g id="textblocktransform">
                                <svg viewBox="0 0 168.5681797752809 173.04" height="173.04" width="168.5681797752809" id="textblock">
                                  <g>
                                    <svg viewBox="0 0 168.5681797752809 173.04" height="173.04" width="168.5681797752809">
                                      <g transform="matrix(1,0,0,1,0,0)">
                                        <svg width="168.5681797752809" viewBox="1.0999999999999996 -41.5 44.35 45.5" height="173.04" data-palette-color="#fe0039">
                                          <path d="M10.25 0L5.1 0 5.1-37.5 5.15-37.5 24.45-10.15 22.15-10.65 41.35-37.5 41.45-37.5 41.45 0 36.15 0 36.15-25.45 36.5-22.7 23.1-3.75 23-3.75 9.35-22.7 10.25-25.2 10.25 0Z" opacity="1" transform="matrix(1,0,0,1,0,0)" fill="#fe0039" class="wordmark-text-0" data-fill-palette-color="primary" id="text-0"></path>
                                        </svg>
                                      </g>
                                    </svg>
                                  </g>
                                </svg>
                              </g>
                            </svg>
                          </g>
                        </svg>
                      </g>
                    </svg>
                  </g>
                </svg>
              </g>
              <g mask="url(#bc127c03-6c58-443d-b729-41ff911d1c9b)">
                <g transform="matrix(2.7864902950134094, 0, 0, 2.7864902950134094, 75.162786490295, 1)">
                  <svg xmlns="http://www.w3.org/2000/svg" xmlns:xlink="http://www.w3.org/1999/xlink" version="1.1" x="0" y="0" viewBox="6.543 7.4599999999999795 87.99400000000001 87.99600000000001" enable-background="new 0 0 100 100" xml:space="preserve" height="87.99600000000001" width="87.99400000000001" class="icon-none" data-fill-palette-color="accent" id="none">
                    <path d="M91.019 40.902c-1.945 0-3.521-1.576-3.521-3.52 0-0.555 0.14-1.073 0.369-1.54-3.819-9.117-10.873-16.544-19.729-20.836v11.815l-7.038 7.04 2.348 3.521h15.251v8.799h11.908c-0.072-0.502-0.117-1.011-0.2-1.509l3.456-0.645c0.412 2.422 0.674 4.894 0.674 7.433 0 24.299-19.697 43.996-43.995 43.996-19.457 0-35.921-12.646-41.727-30.156-1.325-0.504-2.271-1.777-2.271-3.279 0-1.944 1.576-3.521 3.52-3.521 1.943 0 3.52 1.576 3.52 3.521 0 1.08-0.496 2.031-1.261 2.678 0.78 2.253 1.774 4.406 2.92 6.459l10.659-9.137v-12.32h10.56v-7.041h-7.04v-7.039H13.284c-2.071 4.864-3.221 10.217-3.221 15.839 0 0.949 0.078 1.879 0.142 2.812l-3.487 0.649c-0.09-1.146-0.175-2.294-0.175-3.464 0-24.298 19.698-43.997 43.998-43.997 18.04 0 33.493 10.88 40.282 26.417 0.065-0.003 0.127-0.019 0.195-0.019 1.943 0 3.518 1.576 3.518 3.521C94.536 39.326 92.962 40.902 91.019 40.902zM75.179 40.902H64.618v10.559h10.561V40.902zM91.019 51.461c0-0.594-0.058-1.173-0.085-1.759H78.698v5.279h-7.041l-0.018 9.419-2.995 3.325L80.72 78.37C87.105 71.215 91.019 61.807 91.019 51.461zM17.288 74.433c7.295 10.562 19.443 17.507 33.253 17.507 10.711 0 20.424-4.19 27.663-10.984L66.394 70.397 62.86 74.34h-8.799v3.521H36.462v-5.28l-7.92-7.92-0.88 0.881L17.288 74.433zM50.541 74.34V63.781h-10.56V74.34H50.541zM29.422 53.22v6.802l7.04 7.039v-6.8h17.599v10.56H61.1l7.038-7.039V54.98H61.1V40.902l-3.519-5.279H47.021v7.039h-7.04V53.22H29.422zM32.941 35.623v3.519h10.56v-10.56H39.98h-7.04L32.941 35.623 32.941 35.623zM36.462 13.551c-9.193 3.417-16.828 10.037-21.474 18.552h14.434v-7.041l0 0h7.04V13.551zM64.618 13.529c-4.384-1.633-9.12-2.544-14.077-2.544-3.661 0-7.189 0.53-10.561 1.438v12.639h7.04v7.041h10.561l7.037-7.041V13.529z" fill="#c1c1c1" data-fill-palette-color="accent"></path>
                  </svg>
                </g>
              </g>
            </svg>
          </g>
          <defs></defs>
        </svg>
        <rect width="395.52" height="247.2" fill="none" stroke="none" visibility="hidden"></rect>
      </g>
    </svg>
  </g>
</svg>